<svg width="120" height="120" viewBox="0 0 120 120" fill="none" xmlns="http://www.w3.org/2000/svg">
<path fill-rule="evenodd" clip-rule="evenodd" d="M52.5 105C52.5 105 45 105 45 97.5C45 90 52.5 67.5 82.5 67.5C112.5 67.5 120 90 120 97.5C120 105 112.5 105 112.5 105H52.5ZM82.5 60C88.4674 60 94.1903 57.6295 98.4099 53.4099C102.629 49.1903 105 43.4674 105 37.5C105 31.5326 102.629 25.8097 98.4099 21.5901C94.1903 17.3705 88.4674 15 82.5 15C76.5326 15 70.8097 17.3705 66.5901 21.5901C62.3705 25.8097 60 31.5326 60 37.5C60 43.4674 62.3705 49.1903 66.5901 53.4099C70.8097 57.6295 76.5326 60 82.5 60ZM39.12 105C38.0082 102.659 37.4537 100.092 37.5 97.5C37.5 87.3375 42.6 76.875 52.02 69.6C47.3182 68.1513 42.4196 67.4428 37.5 67.5C7.5 67.5 0 90 0 97.5C0 105 7.5 105 7.5 105H39.12ZM33.75 60C38.7228 60 43.4919 58.0246 47.0083 54.5083C50.5246 50.9919 52.5 46.2228 52.5 41.25C52.5 36.2772 50.5246 31.5081 47.0083 27.9917C43.4919 24.4754 38.7228 22.5 33.75 22.5C28.7772 22.5 24.0081 24.4754 20.4917 27.9917C16.9754 31.5081 15 36.2772 15 41.25C15 46.2228 16.9754 50.9919 20.4917 54.5083C24.0081 58.0246 28.7772 60 33.75 60Z" fill="#E7E7E7"/>
</svg>
