<svg width="120" height="120" viewBox="0 0 120 120" fill="none" xmlns="http://www.w3.org/2000/svg">
<path d="M96.6416 115C104.057 107.786 109.939 99.2128 113.947 89.774C117.956 80.3353 120.013 70.2168 120 60C120.013 49.7832 117.956 39.6647 113.947 30.226C109.939 20.7872 104.057 12.2143 96.6416 5L90 11.47C96.5433 17.8357 101.733 25.4001 105.27 33.7285C108.806 42.0569 110.621 50.9851 110.61 60C110.61 78.9526 102.73 96.1115 90 108.53L96.6416 115Z" fill="#E7E7E7"/>
<path d="M84.4987 103C90.0549 97.425 94.4614 90.8004 97.4649 83.5069C100.468 76.2134 102.01 68.3946 102 60.5C102.01 52.6054 100.468 44.7866 97.4649 37.4931C94.4614 30.1996 90.0549 23.575 84.4987 18L78 24.5378C82.7015 29.2552 86.43 34.8607 88.9712 41.0323C91.5125 47.2039 92.8164 53.8199 92.8081 60.5C92.8188 67.1811 91.5169 73.7984 88.9772 79.9716C86.4375 86.1448 82.7101 91.7522 78.0092 96.4715L84.4987 103Z" fill="#E7E7E7"/>
<path d="M71.2844 90C75.0043 86.1959 77.9542 81.6755 79.9648 76.6987C81.9753 71.7219 83.0068 66.3868 83 61C83.0068 55.6132 81.9753 50.2781 79.9648 45.3013C77.9542 40.3245 75.0043 35.8042 71.2844 32L65 38.4434C67.8932 41.4024 70.1875 44.9184 71.7511 48.7894C73.3147 52.6605 74.1167 56.8101 74.1111 61C74.1162 65.1898 73.314 69.3393 71.7504 73.2103C70.1869 77.0812 67.8928 80.5973 65 83.5566L71.2844 90Z" fill="#E7E7E7"/>
<path fill-rule="evenodd" clip-rule="evenodd" d="M52.4058 19.4561C53.1824 19.8325 53.8377 20.4216 54.2965 21.1557C54.7554 21.8899 54.9992 22.7394 55 23.6067V97.3948C54.9988 98.2626 54.7542 99.1124 54.2945 99.8466C53.8347 100.581 53.1784 101.17 52.401 101.545C51.6236 101.921 50.7566 102.068 49.8996 101.971C49.0427 101.873 48.2306 101.533 47.5567 100.992L25.8958 83.5595H4.58333C3.36776 83.5595 2.20197 83.0737 1.34243 82.2088C0.482885 81.3439 0 80.1709 0 78.9478V42.0537C0 40.8306 0.482885 39.6576 1.34243 38.7927C2.20197 37.9278 3.36776 37.4419 4.58333 37.4419H25.8958L47.5567 20.0095C48.2311 19.467 49.0441 19.1273 49.902 19.0294C50.7599 18.9315 51.6278 19.0794 52.4058 19.4561Z" fill="#E7E7E7"/>
</svg>
