<svg width="120" height="120" viewBox="0 0 120 120" fill="none" xmlns="http://www.w3.org/2000/svg">
<g clip-path="url(#clip0_979_478)">
<path fill-rule="evenodd" clip-rule="evenodd" d="M60 112.5C73.9239 112.5 87.2774 106.969 97.1231 97.1231C106.969 87.2774 112.5 73.9239 112.5 60C112.5 46.0761 106.969 32.7226 97.1231 22.8769C87.2774 13.0312 73.9239 7.5 60 7.5C46.0761 7.5 32.7226 13.0312 22.8769 22.8769C13.0312 32.7226 7.5 46.0761 7.5 60C7.5 73.9239 13.0312 87.2774 22.8769 97.1231C32.7226 106.969 46.0761 112.5 60 112.5ZM60 120C75.913 120 91.1742 113.679 102.426 102.426C113.679 91.1742 120 75.913 120 60C120 44.087 113.679 28.8258 102.426 17.5736C91.1742 6.32141 75.913 0 60 0C44.087 0 28.8258 6.32141 17.5736 17.5736C6.32141 28.8258 0 44.087 0 60C0 75.913 6.32141 91.1742 17.5736 102.426C28.8258 113.679 44.087 120 60 120Z" fill="#E7E7E7"/>
<path fill-rule="evenodd" clip-rule="evenodd" d="M60 97.5C69.9456 97.5 79.4839 93.5491 86.5165 86.5165C93.5491 79.4839 97.5 69.9456 97.5 60C97.5 50.0544 93.5491 40.5161 86.5165 33.4835C79.4839 26.4509 69.9456 22.5 60 22.5C50.0544 22.5 40.5161 26.4509 33.4835 33.4835C26.4509 40.5161 22.5 50.0544 22.5 60C22.5 69.9456 26.4509 79.4839 33.4835 86.5165C40.5161 93.5491 50.0544 97.5 60 97.5ZM60 105C65.9095 105 71.7611 103.836 77.2208 101.575C82.6804 99.3131 87.6412 95.9984 91.8198 91.8198C95.9984 87.6412 99.3131 82.6804 101.575 77.2208C103.836 71.7611 105 65.9095 105 60C105 54.0905 103.836 48.2389 101.575 42.7792C99.3131 37.3196 95.9984 32.3588 91.8198 28.1802C87.6412 24.0016 82.6804 20.6869 77.2208 18.4254C71.7611 16.164 65.9095 15 60 15C48.0653 15 36.6193 19.7411 28.1802 28.1802C19.7411 36.6193 15 48.0653 15 60C15 71.9347 19.7411 83.3807 28.1802 91.8198C36.6193 100.259 48.0653 105 60 105Z" fill="#E7E7E7"/>
<path fill-rule="evenodd" clip-rule="evenodd" d="M60 82.5C65.9674 82.5 71.6903 80.1295 75.9099 75.9099C80.1295 71.6903 82.5 65.9674 82.5 60C82.5 54.0326 80.1295 48.3097 75.9099 44.0901C71.6903 39.8705 65.9674 37.5 60 37.5C54.0326 37.5 48.3097 39.8705 44.0901 44.0901C39.8705 48.3097 37.5 54.0326 37.5 60C37.5 65.9674 39.8705 71.6903 44.0901 75.9099C48.3097 80.1295 54.0326 82.5 60 82.5ZM60 90C67.9565 90 75.5871 86.8393 81.2132 81.2132C86.8393 75.5871 90 67.9565 90 60C90 52.0435 86.8393 44.4129 81.2132 38.7868C75.5871 33.1607 67.9565 30 60 30C52.0435 30 44.4129 33.1607 38.7868 38.7868C33.1607 44.4129 30 52.0435 30 60C30 67.9565 33.1607 75.5871 38.7868 81.2132C44.4129 86.8393 52.0435 90 60 90Z" fill="#E7E7E7"/>
<path d="M71.25 60C71.25 62.9837 70.0647 65.8452 67.955 67.955C65.8452 70.0647 62.9837 71.25 60 71.25C57.0163 71.25 54.1548 70.0647 52.045 67.955C49.9353 65.8452 48.75 62.9837 48.75 60C48.75 57.0163 49.9353 54.1548 52.045 52.045C54.1548 49.9353 57.0163 48.75 60 48.75C62.9837 48.75 65.8452 49.9353 67.955 52.045C70.0647 54.1548 71.25 57.0163 71.25 60Z" fill="#E7E7E7"/>
</g>
<defs>
<clipPath id="clip0_979_478">
<rect width="120" height="120" fill="white"/>
</clipPath>
</defs>
</svg>
