<svg width="120" height="120" viewBox="0 0 120 120" fill="none" xmlns="http://www.w3.org/2000/svg">
<path d="M87.4809 51.7038H118.057C118.426 51.704 118.788 51.8096 119.099 52.0084C119.411 52.2072 119.66 52.4909 119.817 52.8263C119.973 53.1617 120.031 53.5349 119.984 53.9022C119.937 54.2695 119.786 54.6157 119.55 54.9003L104.262 73.2992C104.079 73.5186 103.851 73.695 103.593 73.8161C103.335 73.9372 103.054 74 102.769 74C102.484 74 102.203 73.9372 101.945 73.8161C101.687 73.695 101.458 73.5186 101.276 73.2992L85.9879 54.9003C85.7515 54.6157 85.6008 54.2695 85.5536 53.9022C85.5063 53.5349 85.5644 53.1617 85.7211 52.8263C85.8777 52.4909 86.1264 52.2072 86.4381 52.0084C86.7498 51.8096 87.1115 51.704 87.4809 51.7038ZM1.94331 67.2962H32.5191C32.8885 67.296 33.2502 67.1904 33.5619 66.9916C33.8736 66.7928 34.1223 66.5091 34.2789 66.1737C34.4356 65.8383 34.4937 65.4651 34.4464 65.0978C34.3992 64.7305 34.2485 64.3843 34.0121 64.0997L18.7242 45.7008C18.5418 45.4814 18.3135 45.305 18.0555 45.1839C17.7975 45.0628 17.5161 45 17.2312 45C16.9463 45 16.6649 45.0628 16.4069 45.1839C16.1489 45.305 15.9206 45.4814 15.7382 45.7008L0.450289 64.0997C0.213876 64.3843 0.0632235 64.7305 0.0159717 65.0978C-0.0312802 65.4651 0.0268248 65.8383 0.183483 66.1737C0.340141 66.5091 0.588867 66.7928 0.900536 66.9916C1.2122 67.1904 1.57391 67.296 1.94331 67.2962Z" fill="#E7E7E7"/>
<path fill-rule="evenodd" clip-rule="evenodd" d="M60.5 20.7357C48.5656 20.7357 37.8923 26.217 30.8408 34.8304C30.5259 35.2419 30.1322 35.5853 29.683 35.8403C29.2339 36.0953 28.7385 36.2566 28.2262 36.3147C27.714 36.3727 27.1954 36.3264 26.7013 36.1783C26.2072 36.0302 25.7477 35.7835 25.35 35.4528C24.9524 35.1221 24.6248 34.7142 24.3866 34.2533C24.1485 33.7923 24.0048 33.2878 23.9639 32.7698C23.923 32.2517 23.9859 31.7307 24.1488 31.2376C24.3117 30.7445 24.5712 30.2895 24.912 29.8996C30.5424 23.0269 38.0121 17.9293 46.4329 15.213C54.8537 12.4968 63.8712 12.2762 72.4127 14.5776C80.9543 16.8789 88.6604 21.6053 94.6147 28.1946C100.569 34.784 104.521 42.9589 106 51.7471H98.1796C96.4042 42.9927 91.6846 35.125 84.819 29.4743C77.9533 23.8237 69.3628 20.7368 60.5 20.7357ZM22.8204 67.2529C24.2762 74.4213 27.7138 81.0283 32.7361 86.3105C37.7585 91.5926 44.1606 95.3344 51.2029 97.1036C58.2451 98.8727 65.6401 98.597 72.5336 96.3083C79.427 94.0196 85.5375 89.8113 90.1592 84.1696C90.4741 83.7581 90.8678 83.4147 91.317 83.1597C91.7661 82.9047 92.2615 82.7434 92.7738 82.6853C93.286 82.6273 93.8046 82.6736 94.2987 82.8217C94.7928 82.9698 95.2523 83.2165 95.65 83.5472C96.0476 83.8779 96.3752 84.2858 96.6134 84.7467C96.8515 85.2077 96.9952 85.7122 97.0361 86.2302C97.077 86.7483 97.0141 87.2693 96.8512 87.7624C96.6883 88.2555 96.4288 88.7105 96.088 89.1004C90.4576 95.9731 82.9879 101.071 74.5671 103.787C66.1463 106.503 57.1288 106.724 48.5873 104.422C40.0458 102.121 32.3396 97.3947 26.3853 90.8054C20.431 84.216 16.4793 76.0411 15 67.2529H22.8204Z" fill="#E7E7E7"/>
</svg>
