<svg width="120" height="120" viewBox="0 0 120 120" fill="none" xmlns="http://www.w3.org/2000/svg">
<g clip-path="url(#clip0_979_486)">
<path fill-rule="evenodd" clip-rule="evenodd" d="M41.25 3.75C41.25 2.75544 40.8549 1.80161 40.1516 1.09835C39.4484 0.395088 38.4946 0 37.5 0C36.5054 0 35.5516 0.395088 34.8484 1.09835C34.1451 1.80161 33.75 2.75544 33.75 3.75V15C28.7772 15 24.0081 16.9754 20.4917 20.4917C16.9754 24.0081 15 28.7772 15 33.75H3.75C2.75544 33.75 1.80161 34.1451 1.09835 34.8484C0.395088 35.5516 0 36.5054 0 37.5C0 38.4946 0.395088 39.4484 1.09835 40.1516C1.80161 40.8549 2.75544 41.25 3.75 41.25H15V48.75H3.75C2.75544 48.75 1.80161 49.1451 1.09835 49.8484C0.395088 50.5516 0 51.5054 0 52.5C0 53.4946 0.395088 54.4484 1.09835 55.1516C1.80161 55.8549 2.75544 56.25 3.75 56.25H15V63.75H3.75C2.75544 63.75 1.80161 64.1451 1.09835 64.8483C0.395088 65.5516 0 66.5054 0 67.5C0 68.4946 0.395088 69.4484 1.09835 70.1517C1.80161 70.8549 2.75544 71.25 3.75 71.25H15V78.75H3.75C2.75544 78.75 1.80161 79.1451 1.09835 79.8483C0.395088 80.5516 0 81.5054 0 82.5C0 83.4946 0.395088 84.4484 1.09835 85.1517C1.80161 85.8549 2.75544 86.25 3.75 86.25H15C15 91.2228 16.9754 95.9919 20.4917 99.5083C24.0081 103.025 28.7772 105 33.75 105V116.25C33.75 117.245 34.1451 118.198 34.8484 118.902C35.5516 119.605 36.5054 120 37.5 120C38.4946 120 39.4484 119.605 40.1516 118.902C40.8549 118.198 41.25 117.245 41.25 116.25V105H48.75V116.25C48.75 117.245 49.1451 118.198 49.8484 118.902C50.5516 119.605 51.5054 120 52.5 120C53.4946 120 54.4484 119.605 55.1516 118.902C55.8549 118.198 56.25 117.245 56.25 116.25V105H63.75V116.25C63.75 117.245 64.1451 118.198 64.8483 118.902C65.5516 119.605 66.5054 120 67.5 120C68.4946 120 69.4484 119.605 70.1517 118.902C70.8549 118.198 71.25 117.245 71.25 116.25V105H78.75V116.25C78.75 117.245 79.1451 118.198 79.8483 118.902C80.5516 119.605 81.5054 120 82.5 120C83.4946 120 84.4484 119.605 85.1517 118.902C85.8549 118.198 86.25 117.245 86.25 116.25V105C91.2228 105 95.9919 103.025 99.5083 99.5083C103.025 95.9919 105 91.2228 105 86.25H116.25C117.245 86.25 118.198 85.8549 118.902 85.1517C119.605 84.4484 120 83.4946 120 82.5C120 81.5054 119.605 80.5516 118.902 79.8483C118.198 79.1451 117.245 78.75 116.25 78.75H105V71.25H116.25C117.245 71.25 118.198 70.8549 118.902 70.1517C119.605 69.4484 120 68.4946 120 67.5C120 66.5054 119.605 65.5516 118.902 64.8483C118.198 64.1451 117.245 63.75 116.25 63.75H105V56.25H116.25C117.245 56.25 118.198 55.8549 118.902 55.1516C119.605 54.4484 120 53.4946 120 52.5C120 51.5054 119.605 50.5516 118.902 49.8484C118.198 49.1451 117.245 48.75 116.25 48.75H105V41.25H116.25C117.245 41.25 118.198 40.8549 118.902 40.1516C119.605 39.4484 120 38.4946 120 37.5C120 36.5054 119.605 35.5516 118.902 34.8484C118.198 34.1451 117.245 33.75 116.25 33.75H105C105 28.7772 103.025 24.0081 99.5083 20.4917C95.9919 16.9754 91.2228 15 86.25 15V3.75C86.25 2.75544 85.8549 1.80161 85.1517 1.09835C84.4484 0.395088 83.4946 0 82.5 0C81.5054 0 80.5516 0.395088 79.8483 1.09835C79.1451 1.80161 78.75 2.75544 78.75 3.75V15H71.25V3.75C71.25 2.75544 70.8549 1.80161 70.1517 1.09835C69.4484 0.395088 68.4946 0 67.5 0C66.5054 0 65.5516 0.395088 64.8483 1.09835C64.1451 1.80161 63.75 2.75544 63.75 3.75V15H56.25V3.75C56.25 2.75544 55.8549 1.80161 55.1516 1.09835C54.4484 0.395088 53.4946 0 52.5 0C51.5054 0 50.5516 0.395088 49.8484 1.09835C49.1451 1.80161 48.75 2.75544 48.75 3.75V15H41.25V3.75ZM48.75 37.5C45.7663 37.5 42.9048 38.6853 40.795 40.795C38.6853 42.9048 37.5 45.7663 37.5 48.75V71.25C37.5 74.2337 38.6853 77.0952 40.795 79.205C42.9048 81.3147 45.7663 82.5 48.75 82.5H71.25C74.2337 82.5 77.0952 81.3147 79.205 79.205C81.3147 77.0952 82.5 74.2337 82.5 71.25V48.75C82.5 45.7663 81.3147 42.9048 79.205 40.795C77.0952 38.6853 74.2337 37.5 71.25 37.5H48.75ZM48.75 45C47.7554 45 46.8016 45.3951 46.0984 46.0984C45.3951 46.8016 45 47.7554 45 48.75V71.25C45 72.2446 45.3951 73.1984 46.0984 73.9017C46.8016 74.6049 47.7554 75 48.75 75H71.25C72.2446 75 73.1984 74.6049 73.9017 73.9017C74.6049 73.1984 75 72.2446 75 71.25V48.75C75 47.7554 74.6049 46.8016 73.9017 46.0984C73.1984 45.3951 72.2446 45 71.25 45H48.75Z" fill="#E7E7E7"/>
</g>
<defs>
<clipPath id="clip0_979_486">
<rect width="120" height="120" fill="white"/>
</clipPath>
</defs>
</svg>
