<svg width="120" height="120" viewBox="0 0 120 120" fill="none" xmlns="http://www.w3.org/2000/svg">
<path d="M78.75 60C78.75 64.9728 76.7746 69.7419 73.2583 73.2583C69.7419 76.7746 64.9728 78.75 60 78.75C55.0272 78.75 50.2581 76.7746 46.7417 73.2583C43.2254 69.7419 41.25 64.9728 41.25 60C41.25 55.0272 43.2254 50.2581 46.7417 46.7417C50.2581 43.2254 55.0272 41.25 60 41.25C64.9728 41.25 69.7419 43.2254 73.2583 46.7417C76.7746 50.2581 78.75 55.0272 78.75 60Z" fill="#E7E7E7"/>
<path fill-rule="evenodd" clip-rule="evenodd" d="M0 60C0 60 22.5 18.75 60 18.75C97.5 18.75 120 60 120 60C120 60 97.5 101.25 60 101.25C22.5 101.25 0 60 0 60ZM60 86.25C66.9619 86.25 73.6387 83.4844 78.5616 78.5616C83.4844 73.6387 86.25 66.9619 86.25 60C86.25 53.0381 83.4844 46.3613 78.5616 41.4384C73.6387 36.5156 66.9619 33.75 60 33.75C53.0381 33.75 46.3613 36.5156 41.4384 41.4384C36.5156 46.3613 33.75 53.0381 33.75 60C33.75 66.9619 36.5156 73.6387 41.4384 78.5616C46.3613 83.4844 53.0381 86.25 60 86.25Z" fill="#E7E7E7"/>
</svg>
