<svg width="246" height="239" viewBox="0 0 246 239" fill="none" xmlns="http://www.w3.org/2000/svg">
<g clip-path="url(#clip0_1160_284)">
<path d="M179.415 190.661C214.906 155.311 214.906 97.996 179.415 62.6455C143.924 27.295 86.3811 27.295 50.8899 62.6455C15.3987 97.996 15.3987 155.311 50.8899 190.661C86.3811 226.012 143.924 226.012 179.415 190.661Z" stroke="#F72585" stroke-width="1.25" stroke-miterlimit="10"/>
<path d="M33.1906 79.6188C38.3596 70.9476 44.9689 65.273 52.8424 58.6262C63.4205 49.6681 72.4622 41.5707 84.4006 37.4901C93.6504 34.3341 103.3 33.3936 114.134 34.605C126.537 36.0077 137.083 38.7653 148.493 42.288C154.254 44.0732 158.943 45.3165 164.336 48.0103C181.572 56.6018 194.294 71.7924 201.767 88.1784C213.898 114.909 212.522 147.713 195.59 172.213C188.917 181.872 180.787 188.2 172.114 195.102C164.24 201.366 156.991 206.706 147.757 211.552C147.261 211.807 146.781 212.014 146.333 212.221C135.323 217.147 122.872 219.298 111.686 219.203C95.9388 219.075 80.6238 214.405 68.2214 207.312C49.8498 196.744 35.447 180.071 29.4779 161.597C26.5493 152.527 25.9572 144.079 24.901 134.659C23.8608 125.43 22.7725 117.38 23.8928 107.784C24.997 98.3001 27.9416 88.4653 33.1906 79.6188Z" stroke="#F8308B" stroke-width="1.25" stroke-miterlimit="10"/>
<path d="M30.1019 77.5308C35.687 68.4133 43.0964 64.269 52.2342 57.0802C64.3806 47.4526 71.982 37.5222 84.5925 33.4257C94.0183 30.3493 103.78 30.3334 115.751 33.0272C129.513 36.1673 139.387 39.961 151.406 43.2127C157.951 44.982 162.384 45.2848 168.417 47.9149C186.068 55.6456 199.079 71.8722 206.312 88.4974C218.331 116.105 215.498 150.471 197.174 172.802C189.429 182.255 180.515 186.495 171.505 193.476C163.376 199.788 157.359 205.622 147.933 211.871C147.421 212.205 146.973 212.429 146.541 212.652C135.354 218.645 122.056 221.068 111.35 221.227C94.1464 221.466 77.9352 215.983 66.461 209.368C47.7213 198.545 32.1823 180.613 27.6214 161.437C25.2849 151.619 26.3571 143.601 25.1409 133.798C23.9567 124.186 21.3802 117.125 21.7642 106.764C22.1163 97.1367 24.5648 86.5687 30.1019 77.5308Z" stroke="#F83A91" stroke-width="1.25" stroke-miterlimit="10"/>
<path d="M27.0132 75.4427C33.0304 65.8788 41.24 63.2647 51.626 55.534C65.3407 45.2369 71.4699 33.4734 84.7685 29.345C94.3704 26.3643 104.228 27.241 117.351 31.4331C132.458 36.3107 141.692 41.1085 154.302 44.1211C161.615 45.8745 165.792 45.2369 172.482 47.8192C190.501 54.7689 203.8 71.9678 210.825 88.8161C222.699 117.3 218.235 153.149 198.743 173.408C189.861 182.637 180.227 184.789 170.865 191.882C162.48 198.258 157.695 204.57 148.077 212.221C147.565 212.636 147.117 212.875 146.717 213.13C135.37 220.255 121.208 222.933 110.982 223.283C92.338 223.937 75.2466 217.593 64.6686 211.44C45.5769 200.346 28.9496 181.139 25.749 161.31C24.0527 150.742 26.7252 143.155 25.3489 132.953C24.0046 122.959 19.9879 116.902 19.6038 105.776C19.2677 95.989 21.2041 84.6718 27.0132 75.4427Z" stroke="#F94597" stroke-width="1.25" stroke-miterlimit="10"/>
<path d="M23.9247 73.3387C30.3739 63.3286 39.3677 62.2606 51.002 53.956C66.3009 43.0055 70.9739 29.393 84.9606 25.2646C94.7385 22.3635 104.692 24.1488 118.967 29.8393C135.434 36.4542 144.028 42.2404 157.215 45.0298C165.312 46.7513 169.201 45.2211 176.562 47.7077C194.918 53.9401 208.553 72.0476 215.37 89.119C227.084 118.496 220.859 155.699 200.327 173.982C190.245 182.956 179.955 183.068 170.257 190.241C161.6 196.664 158.079 203.471 148.237 212.524C147.709 213.018 147.277 213.289 146.909 213.56C135.418 221.865 120.391 224.782 110.63 225.308C90.5297 226.392 72.5582 219.155 62.8923 213.497C43.4645 202.132 25.781 181.649 23.8927 161.167C22.8525 149.833 27.1253 142.692 25.589 132.108C24.0847 121.732 18.6756 116.663 17.4754 104.772C16.4672 94.8414 17.8435 82.775 23.9247 73.3387Z" stroke="#F9509D" stroke-width="1.25" stroke-miterlimit="10"/>
<path d="M20.8361 71.2505C27.7334 60.794 37.5113 61.2563 50.3938 52.4097C67.2611 40.8056 70.4778 25.3441 85.1366 21.1998C95.0906 18.3785 105.141 21.0882 120.552 28.2611C138.363 36.5976 146.333 43.356 160.095 45.9542C168.977 47.6278 172.578 45.2369 180.611 47.6278C199.287 53.1908 213.274 72.159 219.867 89.4536C231.421 119.723 223.308 158.186 201.863 174.588C190.533 183.259 179.635 181.362 169.601 188.646C160.687 195.134 158.399 202.418 148.365 212.875C147.821 213.433 147.421 213.736 147.069 214.038C135.466 223.586 119.527 226.695 110.246 227.38C88.6893 228.942 69.8376 220.749 61.0839 215.6C41.3201 203.964 22.6284 182.191 22.0043 161.071C21.6362 148.957 27.4774 142.278 25.781 131.311C24.1167 120.552 17.3314 116.487 15.315 103.831C13.6987 93.6936 14.4828 80.894 20.8361 71.2505Z" stroke="#FA5BA3" stroke-width="1.25" stroke-miterlimit="10"/>
<path d="M17.7475 69.1625C25.0769 58.2757 35.639 60.2522 49.7858 50.8637C68.2374 38.5901 69.9817 21.2796 85.3287 17.1353C95.4587 14.3937 105.621 18.012 122.168 26.6832C141.324 36.7571 148.653 44.4719 162.992 46.8788C172.658 48.5046 175.954 45.2689 184.66 47.5323C203.656 52.4736 217.979 72.2548 224.364 89.7725C235.758 120.935 225.676 160.545 203.416 175.178C190.789 183.482 179.331 179.657 168.961 187.021C159.775 193.572 158.735 201.335 148.509 213.194C147.965 213.831 147.565 214.166 147.245 214.469C135.594 225.324 118.679 228.591 109.861 229.388C86.865 231.493 67.1331 222.295 59.2756 217.625C39.1757 205.702 19.5238 182.653 20.116 160.88C20.468 148 27.8455 141.768 25.9891 130.403C24.1648 119.261 16.0512 116.185 13.1546 102.763C10.9462 92.5301 11.1222 78.9973 17.7475 69.1625Z" stroke="#FA65A9" stroke-width="1.25" stroke-miterlimit="10"/>
<path d="M14.6588 67.0742C22.4363 55.7411 33.7825 59.2478 49.1775 49.3174C69.1814 36.3744 69.4695 17.2148 85.5046 13.0705C95.8106 10.4086 106.069 14.9514 123.768 25.105C144.284 36.9163 150.973 45.5716 165.888 47.8031C176.354 49.3652 179.347 45.3165 188.725 47.4525C208.025 51.8199 222.683 72.3662 228.893 90.1071C240.111 122.178 228.044 162.792 204.984 175.783C191.029 183.641 179.043 177.951 168.337 185.427C158.895 192.026 159.103 200.282 148.669 213.544C148.109 214.262 147.741 214.628 147.437 214.947C135.786 227.141 117.863 230.536 109.509 231.46C85.0725 234.154 64.4605 223.889 57.4992 219.729C37.0632 207.503 16.4832 183.211 18.2435 160.784C19.3157 147.139 28.2134 141.353 26.2131 129.606C24.2447 118.081 14.8188 115.977 11.0101 101.823C8.20954 91.3664 7.76145 77.1163 14.6588 67.0742Z" stroke="#FA70AF" stroke-width="1.25" stroke-miterlimit="10"/>
<path d="M11.5703 64.9863C19.8119 53.2228 31.9102 58.2438 48.5535 47.7714C70.1417 34.1589 68.9735 13.1344 85.6967 9.00606C96.1788 6.42383 106.533 11.8752 125.384 23.5271C147.245 37.0759 153.31 46.6716 168.801 48.7278C180.051 50.2102 182.74 45.3964 192.806 47.357C212.409 51.1666 227.388 72.478 233.422 90.4261C244.4 123.405 230.397 164.928 206.552 176.373C191.253 183.721 178.755 176.23 167.713 183.801C157.999 190.464 159.455 199.183 148.813 213.863C148.237 214.644 147.901 215.059 147.613 215.393C136.027 228.974 117.015 232.481 109.141 233.501C83.2643 236.848 61.7561 225.451 55.7069 221.801C34.9508 209.273 13.4426 183.753 16.3712 160.656C18.1956 146.263 28.5976 140.907 26.4212 128.777C24.2928 116.87 13.5867 115.722 8.86574 100.835C5.50508 90.2029 4.43287 75.2356 11.5703 64.9863Z" stroke="#FB7BB5" stroke-width="1.25" stroke-miterlimit="10"/>
<path d="M8.48164 62.8822C17.1553 50.6884 30.0539 57.2396 47.9453 46.2252C71.1019 31.9433 68.4613 9.03791 85.8727 4.9414C96.5148 2.40699 106.997 8.81475 126.985 21.965C150.205 37.2512 155.63 47.7714 171.698 49.6682C183.732 51.0709 186.116 45.5239 196.87 47.2773C216.778 50.5449 232.109 72.5895 237.95 90.7608C248.753 124.633 232.765 167 208.137 176.979C191.477 183.721 178.483 174.54 167.089 182.207C157.119 188.918 159.823 198.131 148.973 214.214C148.397 215.075 148.061 215.505 147.805 215.856C136.363 230.855 116.199 234.441 108.789 235.541C81.5039 239.606 59.0835 227.013 53.9305 223.857C32.8544 210.994 10.434 184.295 14.5148 160.513C17.1073 145.37 28.9816 140.445 26.6612 127.932C24.3727 115.643 12.4024 115.435 6.7373 99.8464C2.78453 89.0074 1.0722 73.3387 8.48164 62.8822Z" stroke="#FB85BB" stroke-width="1.25" stroke-miterlimit="10"/>
<path d="M47.3374 44.6631C28.1816 56.2353 14.515 48.1539 5.39319 60.7941C-2.28831 71.4578 0.0961539 87.8119 4.57703 98.8262C11.2023 115.117 24.4209 114.383 26.8694 127.071C29.3659 139.983 16.0033 144.494 12.6426 160.369C7.44159 184.853 30.7741 212.7 52.1383 225.929C56.4111 228.575 79.7437 242.475 108.421 237.581C115.383 236.402 136.763 232.752 147.981 216.302C148.237 215.935 148.525 215.473 149.117 214.533C160.159 197.047 156.223 187.355 166.449 180.581C178.163 172.818 191.686 183.641 209.689 177.568C235.15 168.977 253.106 125.844 242.463 91.0795C236.83 72.6851 221.163 49.9551 200.935 47.1816C189.509 45.6195 187.413 51.8997 174.61 50.5767C157.967 48.8553 153.182 37.3946 128.601 20.3869C107.461 5.73835 96.883 -1.59392 86.0649 0.860794C67.9494 4.97324 72.0782 29.7276 47.3374 44.6631Z" stroke="#FC90C1" stroke-width="1.25" stroke-miterlimit="10"/>
</g>
<defs>
<clipPath id="clip0_1160_284">
<rect width="246" height="239" fill="white"/>
</clipPath>
</defs>
</svg>
