<svg width="245" height="239" viewBox="0 0 245 239" fill="none" xmlns="http://www.w3.org/2000/svg">
<g clip-path="url(#clip0_1139_246)">
<path d="M178.686 189.067C214.033 153.717 214.033 96.402 178.686 61.0515C143.339 25.7009 86.03 25.7009 50.6831 61.0515C15.3362 96.402 15.3362 153.717 50.6831 189.067C86.03 224.418 143.339 224.418 178.686 189.067Z" stroke="#1A9CD8" stroke-width="1.25" stroke-miterlimit="10"/>
<path d="M32.7049 77.977C37.9007 69.258 44.5629 63.7588 52.5478 57.0323C63.2582 47.9944 72.1038 39.7058 84.0733 35.6093C93.3015 32.4532 102.928 31.6244 113.846 32.9952C126.357 34.5891 136.781 37.4583 148.208 40.965C154.041 42.7503 158.679 43.8979 164.114 46.5758C181.327 55.0717 194.03 70.3897 201.441 86.7917C213.49 113.634 211.992 146.597 194.954 170.858C188.181 180.501 180.021 186.59 171.334 193.508C163.477 199.772 156.368 205.176 147.156 210.165C146.662 210.436 146.184 210.627 145.738 210.85C134.74 215.887 122.261 218.071 111.168 218.007C95.3256 217.912 79.9773 213.146 67.7209 206.116C49.3762 195.501 34.9044 178.7 29.1189 160.146C26.266 150.997 25.8675 142.581 24.7996 133.128C23.7477 123.867 22.5046 115.929 23.5246 106.238C24.5765 96.754 27.4613 86.8395 32.7049 77.977Z" stroke="#2BA4DC" stroke-width="1.25" stroke-miterlimit="10"/>
<path d="M29.2942 75.8252C34.9522 66.6121 42.5068 62.8025 51.8784 55.4861C64.326 45.7151 71.5619 35.3862 84.2805 31.2737C93.7158 28.2292 103.438 28.3886 115.631 31.4172C129.64 34.9399 139.331 38.9567 151.428 42.1605C158.122 43.9299 162.473 44.0096 168.625 46.6396C186.3 54.195 199.306 70.6448 206.462 87.3018C218.399 115.101 215.228 149.801 196.708 171.671C188.739 181.075 179.718 184.837 170.649 191.866C162.489 198.194 156.783 204.14 147.347 210.691C146.837 211.042 146.391 211.265 145.961 211.504C134.788 217.736 121.352 220.223 110.786 220.43C93.3333 220.765 76.9968 215.09 65.7764 208.571C47.0332 197.7 31.3183 179.481 27.0788 160.162C24.8952 150.184 26.3137 142.246 25.0706 132.363C23.8433 122.672 20.9585 115.834 21.1817 105.298C21.3889 95.6383 23.7158 84.9108 29.2942 75.8252Z" stroke="#3BACE0" stroke-width="1.25" stroke-miterlimit="10"/>
<path d="M25.8675 73.6733C32.0036 63.966 40.4348 61.862 51.193 53.9399C65.3779 43.4357 71.0041 31.0505 84.4717 26.9221C94.0983 23.9733 103.948 25.1528 117.384 29.8391C132.876 35.2905 141.865 40.4231 154.615 43.3719C162.17 45.1093 166.218 44.1689 173.103 46.7352C191.161 53.4458 204.517 70.9476 211.45 87.8596C223.229 116.647 218.208 152.957 198.429 172.531C189.185 181.681 179.383 183.147 169.948 190.272C161.5 196.664 157.165 203.136 147.507 211.249C146.981 211.679 146.551 211.934 146.152 212.205C134.804 219.713 120.412 222.471 110.371 222.885C91.3092 223.666 74.0004 217.035 63.7841 211.058C44.6584 199.884 27.7322 180.246 25.0068 160.194C23.5246 149.371 26.7281 141.927 25.3096 131.614C23.923 121.492 19.4444 115.754 18.8069 104.389C18.2491 94.5384 20.0022 82.9821 25.8675 73.6733Z" stroke="#4CB4E4" stroke-width="1.25" stroke-miterlimit="10"/>
<path d="M22.4566 71.5374C29.0709 61.336 38.3788 60.9375 50.5236 52.4097C66.4617 41.1563 70.4621 26.7309 84.6948 22.6025C94.5127 19.7493 104.474 21.933 119.185 28.277C136.175 35.6571 144.463 41.8736 157.851 44.5833C166.266 46.2889 170.011 44.3602 177.63 46.8149C196.054 52.7445 209.793 71.2345 216.471 88.4016C228.074 118.177 221.029 155.954 200.182 173.376C189.583 182.223 179.08 181.426 169.262 188.662C160.528 195.118 157.564 202.131 147.682 211.807C147.156 212.333 146.726 212.62 146.375 212.891C134.884 221.737 119.504 224.75 110.004 225.34C89.3328 226.631 71.0518 218.98 61.8396 213.544C42.3314 202.052 24.2736 180.995 22.9667 160.226C22.2176 148.542 27.1743 141.608 25.5805 130.849C24.0186 120.297 18.0099 115.674 16.4639 103.449C15.1729 93.4545 16.2727 81.0534 22.4566 71.5374Z" stroke="#5DBCE8" stroke-width="1.25" stroke-miterlimit="10"/>
<path d="M19.0301 69.3855C26.1384 58.69 36.3069 59.9971 49.8383 50.8477C67.5137 38.861 69.9044 22.3793 84.8862 18.235C94.8953 15.4615 104.968 18.6813 120.954 26.6831C139.442 35.9918 147.029 43.2763 161.038 45.7629C170.33 47.4047 173.741 44.5355 182.108 46.8627C200.883 52.075 214.989 71.5055 221.459 88.9117C232.871 119.675 223.707 158.791 201.903 174.189C189.902 182.669 178.745 179.688 168.561 187.021C159.54 193.54 157.946 201.095 147.842 212.333C147.3 212.939 146.901 213.257 146.566 213.56C134.979 223.825 118.563 227.029 109.59 227.778C87.3247 229.643 68.0556 220.892 59.8474 216.015C39.9727 204.22 20.8311 181.745 20.8789 160.258C20.9107 147.729 27.5729 141.29 25.8037 130.1C24.0665 119.133 16.5597 115.611 14.0733 102.54C12.1129 92.3387 12.5592 79.1247 19.0301 69.3855Z" stroke="#6DC4EC" stroke-width="1.25" stroke-miterlimit="10"/>
<path d="M15.6192 67.2337C23.2217 56.044 34.2508 59.0407 49.1688 49.3015C68.5814 36.5816 69.3464 18.0437 85.1092 13.8994C95.3096 11.2056 105.494 15.4456 122.755 25.105C142.741 36.3425 149.611 44.679 164.274 46.9743C174.426 48.5523 177.518 44.7746 186.635 46.9584C205.744 51.5171 220.248 71.8084 226.48 89.4696C237.7 121.237 226.352 161.533 203.657 175.05C190.205 183.068 178.427 177.983 167.876 185.427C158.552 192.01 158.345 200.091 148.017 212.891C147.459 213.576 147.092 213.943 146.774 214.246C135.155 225.993 117.655 229.341 109.192 230.233C85.3164 232.72 65.091 222.821 57.871 218.502C37.6297 206.371 17.4361 182.51 18.8068 160.29C19.6356 146.9 27.9871 140.971 26.0427 129.351C24.1301 117.954 15.1729 115.515 11.6984 101.616C9.0846 91.2229 8.84553 77.2119 15.6192 67.2337Z" stroke="#7ECCF0" stroke-width="1.25" stroke-miterlimit="10"/>
<path d="M12.2085 65.0977C20.321 53.4458 32.1949 58.1161 48.4995 47.7713C69.6493 34.3022 68.8046 13.6921 85.3005 9.54783C95.6922 6.94965 105.988 12.1938 124.508 23.527C145.993 36.6932 152.161 46.0816 167.461 48.1697C178.49 49.6681 181.232 45.0296 191.113 47.0221C210.574 50.9433 225.412 72.0952 231.469 89.9955C242.434 122.784 228.934 164.099 205.362 175.879C190.412 183.354 178.076 176.261 167.158 183.801C157.548 190.448 158.727 199.071 148.176 213.433C147.602 214.198 147.252 214.596 146.965 214.931C135.41 228.209 116.714 231.684 108.777 232.672C83.3242 235.86 62.1106 224.734 55.8789 220.956C35.2709 208.491 14.0574 183.243 16.719 160.306C18.3766 146.087 28.4016 140.636 26.2659 128.586C24.178 116.758 13.8023 115.403 9.30781 100.675C6.07238 90.1071 5.14798 75.2991 12.2085 65.0977Z" stroke="#8FD4F4" stroke-width="1.25" stroke-miterlimit="10"/>
<path d="M8.78184 62.946C17.3725 50.7999 30.1229 57.1758 47.8142 46.2093C70.7172 32.0229 68.2308 9.30883 85.5077 5.21232C96.0906 2.66197 106.514 8.97409 126.293 21.949C149.26 37.028 154.743 47.4685 170.681 49.3653C182.571 50.784 184.993 45.3007 195.624 47.0859C215.419 50.4173 230.656 72.3823 236.489 90.5217C247.263 124.298 231.564 166.57 207.115 176.708C190.683 183.53 177.773 174.524 166.489 182.175C156.591 188.886 159.142 198.051 148.367 213.959C147.794 214.819 147.459 215.25 147.188 215.601C135.776 230.44 115.822 234.011 108.395 235.111C81.3797 239.096 59.1621 226.631 53.9185 223.427C32.9599 210.611 10.7422 184.024 14.663 160.322C17.1653 145.275 28.8319 140.285 26.5209 127.805C24.2577 115.547 12.4795 115.244 6.93302 99.7348C3.07601 88.9596 1.43439 73.3705 8.78184 62.946Z" stroke="#9FDCF8" stroke-width="1.25" stroke-miterlimit="10"/>
<path d="M47.1448 44.663C28.0669 56.2352 14.4558 48.1538 5.37108 60.794C-2.27919 71.4576 0.0955805 87.8118 4.55824 98.8261C11.1566 115.117 24.3214 114.383 26.76 127.071C29.2463 139.982 15.938 144.493 12.591 160.369C7.41115 184.853 30.6489 212.699 51.9262 225.929C56.1816 228.575 79.4194 242.475 107.98 237.581C114.913 236.402 136.207 232.752 147.379 216.302C147.634 215.935 147.921 215.473 148.511 214.532C159.508 197.047 155.587 187.355 165.772 180.581C177.438 172.818 190.906 183.641 208.836 177.568C234.194 168.977 252.076 125.844 241.478 91.0794C235.867 72.685 220.264 49.955 200.118 47.1815C188.739 45.6194 186.651 51.8996 173.9 50.5766C157.325 48.8551 152.559 37.3945 128.078 20.3868C107.024 5.73822 96.489 -1.59404 85.7149 0.860671C67.673 4.97312 71.785 29.7275 47.1448 44.663Z" stroke="#B0E4FC" stroke-width="1.25" stroke-miterlimit="10"/>
</g>
<defs>
<clipPath id="clip0_1139_246">
<rect width="245" height="239" fill="white"/>
</clipPath>
</defs>
</svg>
