<svg width="245" height="239" viewBox="0 0 245 239" fill="none" xmlns="http://www.w3.org/2000/svg">
<g clip-path="url(#clip0_1284_1110)">
<path d="M178.686 190.661C214.033 155.311 214.033 97.996 178.686 62.6455C143.339 27.2949 86.03 27.2949 50.6831 62.6455C15.3362 97.996 15.3362 155.311 50.6831 190.661C86.03 226.012 143.339 226.012 178.686 190.661Z" stroke="#605ED0" stroke-width="1.25" stroke-miterlimit="10"/>
<path d="M33.0556 79.6185C38.2036 70.9473 44.7861 65.2728 52.6276 58.6259C63.1627 49.6678 72.1677 41.5705 84.0575 37.4899C93.2697 34.3338 102.88 33.3934 113.67 34.6048C126.022 36.0075 136.526 38.7651 147.889 42.2877C153.627 44.073 158.297 45.3163 163.668 48.0101C180.833 56.6016 193.504 71.7921 200.947 88.1782C213.028 114.909 211.658 147.713 194.795 172.212C188.149 181.872 180.052 188.2 171.414 195.102C163.573 201.366 156.353 206.706 147.156 211.552C146.662 211.807 146.184 212.014 145.738 212.221C134.772 217.146 122.373 219.298 111.232 219.203C95.5488 219.075 80.2961 214.405 67.9441 207.312C49.6472 196.744 35.3029 180.071 29.358 161.596C26.4413 152.527 25.8516 144.079 24.7997 134.658C23.7638 125.429 22.68 117.38 23.7956 107.784C24.8954 98.2999 27.828 88.4651 33.0556 79.6185Z" stroke="#6765D4" stroke-width="1.25" stroke-miterlimit="10"/>
<path d="M29.9797 77.5306C35.5421 68.4131 42.9214 64.2688 52.022 57.08C64.119 47.4524 71.6896 37.5219 84.2488 33.4254C93.6363 30.3491 103.359 30.3331 115.28 33.0269C128.987 36.1671 138.821 39.9607 150.79 43.2124C157.309 44.9817 161.724 45.2846 167.732 47.9146C185.312 55.6454 198.27 71.872 205.474 88.4971C217.443 116.105 214.622 150.471 196.373 172.802C188.659 182.254 179.782 186.494 170.808 193.476C162.712 199.788 156.719 205.622 147.332 211.87C146.822 212.205 146.375 212.428 145.945 212.652C134.804 218.645 121.56 221.068 110.897 221.227C93.7638 221.466 77.6186 215.983 66.191 209.368C47.5275 198.545 32.0516 180.613 27.5093 161.437C25.1823 151.618 26.2502 143.601 25.0389 133.798C23.8595 124.186 21.2934 117.125 21.6759 106.764C22.0266 97.1364 24.4651 86.5684 29.9797 77.5306Z" stroke="#6E6CD7" stroke-width="1.25" stroke-miterlimit="10"/>
<path d="M26.9036 75.4427C32.8963 65.8788 41.0726 63.2647 51.4164 55.534C65.0753 45.2369 71.1796 33.4734 84.4241 29.345C93.987 26.3643 103.805 27.241 116.874 31.4331C131.92 36.3107 141.116 41.1085 153.675 44.1211C160.959 45.8745 165.119 45.2369 171.781 47.8192C189.727 54.7689 202.971 71.9678 209.968 88.8161C221.794 117.3 217.348 153.149 197.935 173.408C189.089 182.637 179.495 184.789 170.171 191.882C161.819 198.258 157.054 204.57 147.475 212.221C146.965 212.636 146.519 212.875 146.12 213.13C134.82 220.255 120.715 222.933 110.531 223.283C91.9628 223.937 74.941 217.593 64.4059 211.44C45.3918 200.346 28.8321 181.139 25.6445 161.31C23.9551 150.742 26.6167 143.155 25.2461 132.953C23.9073 122.959 19.9068 116.902 19.5243 105.776C19.1896 95.989 21.1181 84.6718 26.9036 75.4427Z" stroke="#7574DB" stroke-width="1.25" stroke-miterlimit="10"/>
<path d="M23.8274 73.3387C30.2505 63.3286 39.2076 62.2606 50.7946 53.956C66.0314 43.0055 70.6853 29.393 84.6152 25.2646C94.3534 22.3635 104.267 24.1488 118.484 29.8393C134.884 36.4542 143.443 42.2404 156.576 45.0298C164.64 46.7513 168.513 45.2211 175.845 47.7077C194.126 53.9401 207.705 72.0476 214.495 89.119C226.161 118.496 219.961 155.699 199.513 173.982C189.472 182.956 179.224 183.068 169.565 190.241C160.943 196.664 157.436 203.471 147.634 212.524C147.108 213.018 146.678 213.289 146.311 213.56C134.868 221.865 119.902 224.782 110.18 225.308C90.1616 226.392 72.2632 219.155 62.6366 213.497C43.2878 202.132 25.6762 181.649 23.7955 161.167C22.7596 149.833 27.015 142.692 25.485 132.108C23.9868 121.732 18.5997 116.663 17.4044 104.772C16.4003 94.8414 17.7709 82.775 23.8274 73.3387Z" stroke="#7C7BDE" stroke-width="1.25" stroke-miterlimit="10"/>
<path d="M20.7514 71.251C27.6207 60.7945 37.3588 61.2568 50.189 52.4102C66.9877 40.8061 70.1913 25.3446 84.7905 21.2003C94.704 18.379 104.713 21.0887 120.061 28.2616C137.801 36.598 145.738 43.3565 159.444 45.9547C168.29 47.6283 171.876 45.2374 179.877 47.6283C198.477 53.1913 212.407 72.1595 218.973 89.4541C230.48 119.724 222.4 158.186 201.043 174.588C189.759 183.259 178.905 181.362 168.912 188.647C160.034 195.134 157.755 202.419 147.762 212.875C147.22 213.433 146.821 213.736 146.471 214.039C134.916 223.587 119.041 226.695 109.797 227.38C88.3288 228.943 69.5537 220.749 60.8356 215.601C41.1521 203.965 22.5364 182.191 21.9148 161.071C21.5483 148.957 27.3657 142.278 25.6762 131.312C24.0187 120.552 17.2609 116.488 15.2527 103.832C13.643 93.6941 14.4239 80.8945 20.7514 71.251Z" stroke="#8482E2" stroke-width="1.25" stroke-miterlimit="10"/>
<path d="M17.6753 69.1625C24.975 58.2757 35.4941 60.2522 49.5833 50.8637C67.9599 38.5901 69.6972 21.2796 84.9818 17.1353C95.0706 14.3937 105.191 18.012 121.671 26.6832C140.749 36.7571 148.049 44.4719 162.329 46.8788C171.956 48.5046 175.239 45.2689 183.909 47.5323C202.828 52.4736 217.092 72.2548 223.452 89.7725C234.8 120.935 224.759 160.545 202.589 175.178C190.014 183.482 178.602 179.657 168.274 187.021C159.126 193.572 158.09 201.335 147.905 213.194C147.363 213.831 146.965 214.166 146.646 214.469C135.043 225.324 118.197 228.591 109.415 229.388C86.5119 231.493 66.8602 222.295 59.0346 217.625C39.0164 205.702 19.4445 182.653 20.0342 160.88C20.3848 148 27.7323 141.768 25.8834 130.403C24.0665 119.261 15.9859 116.185 13.1011 102.763C10.9017 92.5301 11.077 78.9973 17.6753 69.1625Z" stroke="#8B89E6" stroke-width="1.25" stroke-miterlimit="10"/>
<path d="M14.5993 67.074C22.3452 55.7409 33.6453 59.2476 48.9777 49.3172C68.9003 36.3741 69.1872 17.2146 85.1572 13.0703C95.4213 10.4083 105.638 14.9511 123.265 25.1047C143.698 36.9161 150.36 45.5713 165.214 47.8029C175.638 49.365 178.618 45.3163 187.958 47.4522C207.179 51.8197 221.778 72.366 227.962 90.1069C239.135 122.178 227.118 162.792 204.151 175.783C190.253 183.641 178.315 177.951 167.653 185.426C158.249 192.025 158.456 200.282 148.065 213.544C147.507 214.261 147.14 214.628 146.837 214.947C135.235 227.141 117.384 230.536 109.064 231.46C84.7268 234.154 64.1986 223.889 57.2655 219.729C36.9126 207.503 16.4163 183.211 18.1694 160.784C19.2373 147.139 28.0989 141.353 26.1066 129.605C24.1462 118.081 14.7587 115.977 10.9654 101.823C8.17628 91.3661 7.73001 77.116 14.5993 67.074Z" stroke="#9290E9" stroke-width="1.25" stroke-miterlimit="10"/>
<path d="M11.5233 64.9866C19.7314 53.2231 31.7806 58.2441 48.3562 47.7717C69.8566 34.1592 68.6931 13.1347 85.3484 9.00631C95.7878 6.42407 106.1 11.8755 124.875 23.5274C146.646 37.0761 152.687 46.6718 168.115 48.7281C179.319 50.2105 181.997 45.3967 192.022 47.3572C211.546 51.1668 226.464 72.4782 232.473 90.4263C243.406 123.406 229.46 164.929 205.713 176.373C190.476 183.721 178.028 176.23 167.031 183.801C157.357 190.464 158.807 199.183 148.208 213.863C147.634 214.644 147.3 215.059 147.013 215.394C135.474 228.974 116.539 232.481 108.698 233.501C82.9258 236.849 61.5051 225.452 55.4805 221.801C34.8088 209.273 13.388 183.753 16.3047 160.657C18.1216 146.263 28.4814 140.907 26.3138 128.777C24.194 116.87 13.5315 115.723 8.82974 100.835C5.48275 90.2032 4.4149 75.2358 11.5233 64.9866Z" stroke="#9998ED" stroke-width="1.25" stroke-miterlimit="10"/>
<path d="M8.44735 62.8825C17.0858 50.6886 29.9319 57.2398 47.7506 46.2255C70.813 31.9435 68.1832 9.03815 85.5238 4.94165C96.1227 2.40723 106.562 8.81499 126.469 21.9653C149.595 37.2514 154.998 47.7716 171 49.6685C182.985 51.0712 185.36 45.5241 196.07 47.2775C215.897 50.5452 231.166 72.5898 236.983 90.761C247.742 124.633 231.819 167.001 207.291 176.979C190.699 183.721 177.757 174.54 166.41 182.207C156.48 188.918 159.174 198.131 148.368 214.214C147.794 215.075 147.459 215.505 147.204 215.856C135.808 230.855 115.727 234.442 108.347 235.541C81.1728 239.606 58.8435 227.014 53.7115 223.858C32.721 210.994 10.3918 184.295 14.456 160.513C17.038 145.37 28.864 140.445 26.553 127.932C24.2739 115.643 12.3522 115.436 6.7101 99.8467C2.7734 89.0077 1.06802 73.3389 8.44735 62.8825Z" stroke="#A09FF0" stroke-width="1.25" stroke-miterlimit="10"/>
<path d="M47.1449 44.6626C28.067 56.2349 14.4559 48.1534 5.3712 60.7936C-2.27907 71.4573 0.0957025 87.8114 4.55836 98.8258C11.1567 115.116 24.3216 114.383 26.7601 127.071C29.2464 139.982 15.9381 144.493 12.5911 160.369C7.41128 184.852 30.649 212.699 51.9263 225.929C56.1818 228.575 79.4195 242.474 107.98 237.581C114.914 236.401 136.207 232.751 147.379 216.301C147.634 215.935 147.921 215.473 148.511 214.532C159.508 197.046 155.588 187.355 165.772 180.581C177.439 172.818 190.906 183.641 208.837 177.568C234.194 168.976 252.077 125.844 241.478 91.0791C235.868 72.6846 220.264 49.9546 200.118 47.1811C188.739 45.619 186.651 51.8993 173.9 50.5763C157.325 48.8548 152.559 37.3941 128.078 20.3864C107.024 5.73786 96.4891 -1.59441 85.715 0.860305C67.6731 4.97275 71.7851 29.7271 47.1449 44.6626Z" stroke="#A7A6F4" stroke-width="1.25" stroke-miterlimit="10"/>
</g>
<defs>
<clipPath id="clip0_1284_1110">
<rect width="245" height="239" fill="white"/>
</clipPath>
</defs>
</svg>
