<svg width="245" height="239" viewBox="0 0 245 239" fill="none" xmlns="http://www.w3.org/2000/svg">
<g clip-path="url(#clip0_1169_1169)">
<path d="M178.686 190.661C214.033 155.311 214.033 97.996 178.686 62.6455C143.339 27.2949 86.03 27.2949 50.6831 62.6455C15.3362 97.996 15.3362 155.311 50.6831 190.661C86.03 226.012 143.339 226.012 178.686 190.661Z" stroke="#A414A4" stroke-width="1.25" stroke-miterlimit="10"/>
<path d="M33.0556 79.619C38.2036 70.9478 44.7861 65.2733 52.6276 58.6264C63.1627 49.6683 72.1677 41.5709 84.0575 37.4904C93.2697 34.3343 102.88 33.3939 113.67 34.6053C126.022 36.008 136.526 38.7656 147.889 42.2882C153.627 44.0735 158.297 45.3168 163.668 48.0106C180.833 56.6021 193.504 71.7926 200.947 88.1787C213.028 114.91 211.658 147.713 194.795 172.213C188.149 181.872 180.052 188.2 171.414 195.102C163.573 201.367 156.353 206.706 147.156 211.552C146.662 211.807 146.184 212.014 145.738 212.221C134.772 217.147 122.373 219.299 111.232 219.203C95.5488 219.076 80.2961 214.405 67.9441 207.312C49.6472 196.744 35.3029 180.071 29.358 161.597C26.4413 152.527 25.8516 144.079 24.7997 134.659C23.7638 125.43 22.68 117.38 23.7956 107.785C24.8954 98.3004 27.828 88.4656 33.0556 79.619Z" stroke="#AB1EAB" stroke-width="1.25" stroke-miterlimit="10"/>
<path d="M29.9797 77.5306C35.5421 68.4131 42.9214 64.2688 52.022 57.08C64.119 47.4524 71.6896 37.5219 84.2488 33.4254C93.6363 30.3491 103.359 30.3331 115.28 33.0269C128.987 36.1671 138.821 39.9607 150.79 43.2124C157.309 44.9817 161.724 45.2846 167.732 47.9146C185.312 55.6454 198.27 71.872 205.474 88.4971C217.443 116.105 214.622 150.471 196.373 172.802C188.659 182.254 179.782 186.494 170.808 193.476C162.712 199.788 156.719 205.622 147.332 211.87C146.822 212.205 146.375 212.428 145.945 212.652C134.804 218.645 121.56 221.068 110.897 221.227C93.7638 221.466 77.6186 215.983 66.191 209.368C47.5275 198.545 32.0516 180.613 27.5093 161.437C25.1823 151.618 26.2502 143.601 25.0389 133.798C23.8595 124.186 21.2934 117.125 21.6759 106.764C22.0266 97.1364 24.4651 86.5684 29.9797 77.5306Z" stroke="#B327B3" stroke-width="1.25" stroke-miterlimit="10"/>
<path d="M26.9036 75.4427C32.8963 65.8788 41.0726 63.2647 51.4164 55.534C65.0753 45.2369 71.1796 33.4734 84.4241 29.345C93.987 26.3643 103.805 27.241 116.874 31.4331C131.92 36.3107 141.116 41.1085 153.675 44.1211C160.959 45.8745 165.119 45.2369 171.781 47.8192C189.727 54.7689 202.971 71.9678 209.968 88.8161C221.794 117.3 217.348 153.149 197.935 173.408C189.089 182.637 179.495 184.789 170.171 191.882C161.819 198.258 157.054 204.57 147.475 212.221C146.965 212.636 146.519 212.875 146.12 213.13C134.82 220.255 120.715 222.933 110.531 223.283C91.9628 223.937 74.941 217.593 64.4059 211.44C45.3918 200.346 28.8321 181.139 25.6445 161.31C23.9551 150.742 26.6167 143.155 25.2461 132.953C23.9073 122.959 19.9068 116.902 19.5243 105.776C19.1896 95.989 21.1181 84.6718 26.9036 75.4427Z" stroke="#BA31BA" stroke-width="1.25" stroke-miterlimit="10"/>
<path d="M23.8274 73.3387C30.2505 63.3286 39.2076 62.2606 50.7946 53.956C66.0314 43.0055 70.6853 29.393 84.6152 25.2646C94.3534 22.3635 104.267 24.1488 118.484 29.8393C134.884 36.4542 143.443 42.2404 156.576 45.0298C164.64 46.7513 168.513 45.2211 175.845 47.7077C194.126 53.9401 207.705 72.0476 214.495 89.119C226.161 118.496 219.961 155.699 199.513 173.982C189.472 182.956 179.224 183.068 169.565 190.241C160.943 196.664 157.436 203.471 147.634 212.524C147.108 213.018 146.678 213.289 146.311 213.56C134.868 221.865 119.902 224.782 110.18 225.308C90.1616 226.392 72.2632 219.155 62.6366 213.497C43.2878 202.132 25.6762 181.649 23.7955 161.167C22.7596 149.833 27.015 142.692 25.485 132.108C23.9868 121.732 18.5997 116.663 17.4044 104.772C16.4003 94.8414 17.7709 82.775 23.8274 73.3387Z" stroke="#C23AC2" stroke-width="1.25" stroke-miterlimit="10"/>
<path d="M20.7514 71.2505C27.6207 60.794 37.3588 61.2563 50.189 52.4097C66.9877 40.8056 70.1913 25.3441 84.7905 21.1998C94.704 18.3785 104.713 21.0882 120.061 28.2611C137.801 36.5976 145.738 43.356 159.444 45.9542C168.29 47.6278 171.876 45.2369 179.877 47.6278C198.477 53.1908 212.407 72.159 218.973 89.4536C230.48 119.723 222.4 158.186 201.043 174.588C189.759 183.259 178.905 181.362 168.912 188.646C160.034 195.134 157.755 202.418 147.762 212.875C147.22 213.433 146.821 213.736 146.471 214.038C134.916 223.586 119.041 226.695 109.797 227.38C88.3288 228.942 69.5537 220.749 60.8356 215.6C41.1521 203.964 22.5364 182.191 21.9148 161.071C21.5483 148.957 27.3657 142.278 25.6762 131.311C24.0187 120.552 17.2609 116.487 15.2527 103.831C13.643 93.6936 14.4239 80.894 20.7514 71.2505Z" stroke="#C944C9" stroke-width="1.25" stroke-miterlimit="10"/>
<path d="M17.6753 69.1625C24.975 58.2757 35.4941 60.2522 49.5833 50.8637C67.9599 38.5901 69.6972 21.2796 84.9818 17.1353C95.0706 14.3937 105.191 18.012 121.671 26.6832C140.749 36.7571 148.049 44.4719 162.329 46.8788C171.956 48.5046 175.239 45.2689 183.909 47.5323C202.828 52.4736 217.092 72.2548 223.452 89.7725C234.8 120.935 224.759 160.545 202.589 175.178C190.014 183.482 178.602 179.657 168.274 187.021C159.126 193.572 158.09 201.335 147.905 213.194C147.363 213.831 146.965 214.166 146.646 214.469C135.043 225.324 118.197 228.591 109.415 229.388C86.5119 231.493 66.8602 222.295 59.0346 217.625C39.0164 205.702 19.4445 182.653 20.0342 160.88C20.3848 148 27.7323 141.768 25.8834 130.403C24.0665 119.261 15.9859 116.185 13.1011 102.763C10.9017 92.5301 11.077 78.9973 17.6753 69.1625Z" stroke="#D04DD0" stroke-width="1.25" stroke-miterlimit="10"/>
<path d="M14.5993 67.0745C22.3452 55.7414 33.6453 59.2481 48.9777 49.3176C68.9003 36.3746 69.1872 17.2151 85.1572 13.0708C95.4213 10.4088 105.638 14.9516 123.265 25.1052C143.698 36.9166 150.36 45.5718 165.214 47.8034C175.638 49.3655 178.618 45.3168 187.958 47.4527C207.179 51.8202 221.778 72.3665 227.962 90.1074C239.135 122.178 227.118 162.792 204.151 175.783C190.253 183.642 178.315 177.951 167.653 185.427C158.249 192.026 158.456 200.283 148.065 213.544C147.507 214.262 147.14 214.628 146.837 214.947C135.235 227.141 117.384 230.536 109.064 231.461C84.7268 234.155 64.1986 223.889 57.2655 219.729C36.9126 207.503 16.4163 183.211 18.1694 160.784C19.2373 147.14 28.0989 141.354 26.1066 129.606C24.1462 118.082 14.7587 115.978 10.9654 101.823C8.17628 91.3666 7.73001 77.1165 14.5993 67.0745Z" stroke="#D856D8" stroke-width="1.25" stroke-miterlimit="10"/>
<path d="M11.5233 64.9861C19.7314 53.2226 31.7806 58.2436 48.3562 47.7712C69.8566 34.1587 68.6931 13.1342 85.3484 9.00582C95.7878 6.42358 106.1 11.875 124.875 23.5269C146.646 37.0756 152.687 46.6713 168.115 48.7276C179.319 50.21 181.997 45.3962 192.022 47.3568C211.546 51.1663 226.464 72.4777 232.473 90.4258C243.406 123.405 229.46 164.928 205.713 176.373C190.476 183.721 178.028 176.229 167.031 183.801C157.357 190.463 158.807 199.182 148.208 213.863C147.634 214.644 147.3 215.058 147.013 215.393C135.474 228.974 116.539 232.481 108.698 233.501C82.9258 236.848 61.5051 225.451 55.4805 221.801C34.8088 209.272 13.388 183.753 16.3047 160.656C18.1216 146.263 28.4814 140.907 26.3138 128.777C24.194 116.87 13.5315 115.722 8.82974 100.834C5.48275 90.2027 4.4149 75.2353 11.5233 64.9861Z" stroke="#DF60DF" stroke-width="1.25" stroke-miterlimit="10"/>
<path d="M8.44735 62.882C17.0858 50.6881 29.9319 57.2393 47.7506 46.225C70.813 31.943 68.1832 9.03766 85.5238 4.94116C96.1227 2.40674 106.562 8.81451 126.469 21.9648C149.595 37.2509 154.998 47.7712 171 49.668C182.985 51.0707 185.36 45.5237 196.07 47.277C215.897 50.5447 231.166 72.5893 236.983 90.7606C247.742 124.632 231.819 167 207.291 176.978C190.699 183.721 177.757 174.54 166.41 182.207C156.48 188.917 159.174 198.13 148.368 214.214C147.794 215.074 147.459 215.505 147.204 215.855C135.808 230.855 115.727 234.441 108.347 235.541C81.1728 239.606 58.8435 227.013 53.7115 223.857C32.721 210.994 10.3918 184.295 14.456 160.513C17.038 145.37 28.864 140.445 26.553 127.932C24.2739 115.642 12.3522 115.435 6.7101 99.8462C2.7734 89.0072 1.06802 73.3385 8.44735 62.882Z" stroke="#E769E7" stroke-width="1.25" stroke-miterlimit="10"/>
<path d="M47.1449 44.6631C28.067 56.2353 14.4559 48.1539 5.3712 60.7941C-2.27907 71.4578 0.0957025 87.8119 4.55836 98.8262C11.1567 115.117 24.3216 114.383 26.7601 127.071C29.2464 139.983 15.9381 144.494 12.5911 160.369C7.41128 184.853 30.649 212.7 51.9263 225.929C56.1818 228.575 79.4195 242.475 107.98 237.581C114.914 236.402 136.207 232.752 147.379 216.302C147.634 215.935 147.921 215.473 148.511 214.533C159.508 197.047 155.588 187.355 165.772 180.581C177.439 172.818 190.906 183.641 208.837 177.568C234.194 168.977 252.077 125.844 241.478 91.0795C235.868 72.6851 220.264 49.9551 200.118 47.1816C188.739 45.6195 186.651 51.8997 173.9 50.5767C157.325 48.8553 152.559 37.3946 128.078 20.3869C107.024 5.73835 96.4891 -1.59392 85.715 0.860794C67.6731 4.97324 71.7851 29.7276 47.1449 44.6631Z" stroke="#EE73EE" stroke-width="1.25" stroke-miterlimit="10"/>
</g>
<defs>
<clipPath id="clip0_1169_1169">
<rect width="245" height="239" fill="white"/>
</clipPath>
</defs>
</svg>
