<svg width="48" height="47" viewBox="0 0 48 47" fill="none" xmlns="http://www.w3.org/2000/svg">
<path d="M24.3201 11.5173C17.6231 11.5173 12.2213 16.8832 12.2213 23.5356C12.2213 30.1879 17.6231 35.5538 24.3201 35.5538C31.0171 35.5538 36.4189 30.1879 36.4189 23.5356C36.4189 16.8832 31.0171 11.5173 24.3201 11.5173ZM24.3201 31.349C19.9923 31.349 16.4543 27.845 16.4543 23.5356C16.4543 19.2261 19.9818 15.7221 24.3201 15.7221C28.6584 15.7221 32.1859 19.2261 32.1859 23.5356C32.1859 27.845 28.6479 31.349 24.3201 31.349ZM39.7358 11.0257C39.7358 12.5842 38.4722 13.8289 36.9138 13.8289C35.3449 13.8289 34.0918 12.5737 34.0918 11.0257C34.0918 9.47767 35.3554 8.2225 36.9138 8.2225C38.4722 8.2225 39.7358 9.47767 39.7358 11.0257ZM47.749 13.8708C47.57 10.1157 46.7065 6.78952 43.9372 4.04907C41.1784 1.30861 37.8299 0.450916 34.0497 0.262641C30.1536 0.0429868 18.476 0.0429868 14.58 0.262641C10.8103 0.440457 7.46184 1.29815 4.69249 4.03861C1.92314 6.77906 1.07023 10.1053 0.880689 13.8603C0.659562 17.7304 0.659562 29.3302 0.880689 33.2003C1.0597 36.9554 1.92314 40.2816 4.69249 43.022C7.46184 45.7625 10.7998 46.6202 14.58 46.8085C18.476 47.0281 30.1536 47.0281 34.0497 46.8085C37.8299 46.6306 41.1784 45.7729 43.9372 43.022C46.696 40.2816 47.5595 36.9554 47.749 33.2003C47.9701 29.3302 47.9701 17.7409 47.749 13.8708ZM42.7157 37.3529C41.8944 39.403 40.3044 40.9824 38.23 41.8087C35.1237 43.0325 27.7528 42.7501 24.3201 42.7501C20.8874 42.7501 13.506 43.022 10.4102 41.8087C8.34634 40.9929 6.75634 39.4134 5.92448 37.3529C4.69249 34.2672 4.9768 26.9454 4.9768 23.5356C4.9768 20.1257 4.70302 12.7934 5.92448 9.71824C6.74581 7.66813 8.33581 6.08871 10.4102 5.26239C13.5165 4.03861 20.8874 4.32102 24.3201 4.32102C27.7528 4.32102 35.1343 4.04906 38.23 5.26239C40.2939 6.07825 41.8839 7.65767 42.7157 9.71824C43.9477 12.8039 43.6634 20.1257 43.6634 23.5356C43.6634 26.9454 43.9477 34.2777 42.7157 37.3529Z" fill="#E7E7E7"/>
</svg>
