<svg width="48" height="48" viewBox="0 0 48 48" fill="none" xmlns="http://www.w3.org/2000/svg">
<path d="M44.6284 0.172852H4.1607C2.30641 0.172852 0.799805 1.71522 0.799805 3.60861V44.3909C0.799805 46.2843 2.30641 47.8267 4.1607 47.8267H44.6284C46.4827 47.8267 47.9998 46.2843 47.9998 44.3909V3.60861C47.9998 1.71522 46.4827 0.172852 44.6284 0.172852ZM15.0652 41.019H8.06945V18.2771H15.0757V41.019H15.0652ZM11.5673 15.171C9.3232 15.171 7.51105 13.3308 7.51105 11.0758C7.51105 8.82075 9.3232 6.98054 11.5673 6.98054C13.8009 6.98054 15.6236 8.82075 15.6236 11.0758C15.6236 13.3415 13.8114 15.171 11.5673 15.171ZM41.2886 41.019H34.2928V29.9565C34.2928 27.3185 34.2402 23.9253 30.658 23.9253C27.0127 23.9253 26.4543 26.7973 26.4543 29.765V41.019H19.4586V18.2771H26.1698V21.3831H26.2646C27.2023 19.596 29.4886 17.7133 32.8916 17.7133C39.9716 17.7133 41.2886 22.4255 41.2886 28.5524V41.019Z" fill="#E7E7E7"/>
</svg>
