<svg width="49" height="35" viewBox="0 0 49 35" fill="none" xmlns="http://www.w3.org/2000/svg">
<path d="M47.9517 5.39874C47.3975 3.30236 45.7643 1.65132 43.6908 1.09102C39.9323 0.072876 24.8612 0.072876 24.8612 0.072876C24.8612 0.072876 9.79028 0.072876 6.03172 1.09102C3.95816 1.65141 2.32504 3.30236 1.77076 5.39874C0.763672 9.19855 0.763672 17.1265 0.763672 17.1265C0.763672 17.1265 0.763672 25.0544 1.77076 28.8543C2.32504 30.9506 3.95816 32.5329 6.03172 33.0932C9.79028 34.1113 24.8612 34.1113 24.8612 34.1113C24.8612 34.1113 39.9322 34.1113 43.6908 33.0932C45.7643 32.5329 47.3975 30.9506 47.9517 28.8543C48.9588 25.0544 48.9588 17.1265 48.9588 17.1265C48.9588 17.1265 48.9588 9.19855 47.9517 5.39874ZM19.9322 24.3245V9.92852L32.5286 17.1267L19.9322 24.3245Z" fill="#E7E7E7"/>
</svg>
