<svg xmlns="http://www.w3.org/2000/svg" width="126" height="126" viewBox="0 0 126 126" fill="none">
  <path d="M95.6025 68.9298L52.4318 106.698C47.3445 111.156 39.375 107.533 39.375 100.768V25.2314C39.3737 23.7174 39.8088 22.2352 40.6282 20.9622C41.4477 19.6892 42.6166 18.6794 43.9952 18.0537C45.3738 17.428 46.9035 17.2129 48.4011 17.4342C49.8988 17.6555 51.3009 18.3038 52.4396 19.3015L95.5946 57.07C96.4405 57.8092 97.1184 58.7207 97.5829 59.7435C98.0474 60.7663 98.2877 61.8766 98.2877 62.9999C98.2877 64.1232 98.0474 65.2335 97.5829 66.2563C97.1184 67.279 96.4405 68.1906 95.5946 68.9298H95.6025Z" fill="#4CC9F0" fill-opacity="0.33"/>
</svg>