<svg xmlns="http://www.w3.org/2000/svg" width="126" height="126" viewBox="0 0 126 126" fill="none">
<path d="M30.3981 68.9298L73.5689 106.698C78.6561 111.156 86.6256 107.533 86.6256 100.768V25.2314C86.6269 23.7174 86.1918 22.2352 85.3724 20.9622C84.553 19.6892 83.384 18.6794 82.0054 18.0537C80.6268 17.428 79.0971 17.2129 77.5995 17.4342C76.1018 17.6555 74.6997 18.3038 73.561 19.3015L30.406 57.07C29.5601 57.8092 28.8822 58.7207 28.4177 59.7435C27.9532 60.7663 27.7129 61.8766 27.7129 62.9999C27.7129 64.1232 27.9532 65.2335 28.4177 66.2563C28.8822 67.279 29.5601 68.1906 30.406 68.9298H30.3981Z" fill="#4CC9F0" fill-opacity="0.33"/>
</svg>