<svg width="49" height="55" viewBox="0 0 49 55" fill="none" xmlns="http://www.w3.org/2000/svg">
<path d="M23.6125 0.201478V4.0335C23.6125 4.08697 23.5913 4.13824 23.5535 4.17608C23.5158 4.21391 23.4645 4.2352 23.4111 4.23528H19.8502C19.8026 4.23498 19.7565 4.25184 19.7203 4.28279C19.6842 4.31373 19.6604 4.35667 19.6533 4.40374C19.6502 4.41446 19.6486 4.42559 19.6487 4.43676V25.8467C19.6487 25.8584 19.6502 25.87 19.6533 25.8813C19.6451 25.928 19.6208 25.9703 19.5845 26.0008C19.5482 26.0314 19.5023 26.0481 19.4549 26.0482H15.6061C15.5925 26.0482 15.5789 26.0467 15.5657 26.0436H0.201519C0.148084 26.0436 0.0968378 26.0224 0.0590537 25.9846C0.0212695 25.9468 4.25129e-05 25.8956 4.25129e-05 25.8422V21.9245C-0.000646398 21.8925 0.0070479 21.8609 0.0223609 21.8328V17.4187C0.0222791 17.3651 0.0434311 17.3136 0.0811892 17.2756C0.118947 17.2375 0.170237 17.216 0.223837 17.2157H4.15217C4.20577 17.216 4.25706 17.2375 4.29482 17.2756C4.33258 17.3136 4.35373 17.3651 4.35365 17.4187V21.5213C4.35373 21.5747 4.37502 21.626 4.41285 21.6638C4.45069 21.7015 4.50197 21.7228 4.55543 21.7228H15.2031C15.2296 21.7228 15.2558 21.7175 15.2802 21.7074C15.3047 21.6973 15.3269 21.6824 15.3456 21.6637C15.3643 21.645 15.3791 21.6228 15.3892 21.5984C15.3994 21.5739 15.4046 21.5477 15.4046 21.5213V4.43676C15.4046 4.4103 15.3994 4.3841 15.3892 4.35966C15.3791 4.33521 15.3643 4.313 15.3456 4.2943C15.3269 4.27559 15.3047 4.26075 15.2802 4.25062C15.2558 4.2405 15.2296 4.23528 15.2031 4.23528H11.6734C11.6198 4.23528 11.5684 4.21407 11.5303 4.17626C11.4923 4.13845 11.4708 4.08713 11.4704 4.0335V0.201478C11.4708 0.147878 11.4923 0.0965885 11.5304 0.0588304C11.5684 0.0210723 11.6198 -7.97333e-05 11.6734 2.08788e-06H23.4101C23.4367 -0.000118711 23.463 0.00500347 23.4875 0.0150745C23.5121 0.0251455 23.5344 0.039967 23.5532 0.0586879C23.572 0.0774087 23.5869 0.0996601 23.5971 0.124164C23.6073 0.148668 23.6125 0.174943 23.6125 0.201478Z" fill="white"/>
<path d="M48.9998 17.4327V25.8217C48.9998 25.8481 48.9946 25.8743 48.9845 25.8987C48.9744 25.9231 48.9596 25.9453 48.9409 25.964C48.9223 25.9827 48.9001 25.9975 48.8756 26.0076C48.8512 26.0177 48.825 26.0229 48.7986 26.0229H25.342C25.289 26.0225 25.2382 26.0012 25.2008 25.9635C25.1634 25.9258 25.1425 25.8748 25.1427 25.8217V22.0056C25.1426 21.9524 25.1636 21.9015 25.201 21.8638C25.2384 21.8261 25.2892 21.8047 25.3424 21.8044H29.7712V4.45572C29.7712 4.40233 29.75 4.35113 29.7123 4.31336C29.6745 4.27558 29.6234 4.25432 29.57 4.25424H25.3375C25.2841 4.25424 25.2329 4.23304 25.1952 4.19532C25.1575 4.15759 25.1363 4.10642 25.1363 4.05307V0.225019C25.1366 0.171906 25.158 0.121082 25.1957 0.0836683C25.2334 0.0462542 25.2843 0.0252954 25.3375 0.0253773H48.6485C48.7016 0.0252147 48.7527 0.0461474 48.7904 0.0835789C48.8281 0.12101 48.8494 0.171881 48.8497 0.225019V8.5045C48.8497 8.55786 48.8285 8.60903 48.7907 8.64675C48.753 8.68448 48.7018 8.70567 48.6485 8.70567H44.8519C44.7986 8.70559 44.7475 8.68437 44.7098 8.64666C44.6721 8.60895 44.6508 8.55783 44.6508 8.5045V4.45572C44.6508 4.40252 44.6298 4.35146 44.5924 4.3137C44.5549 4.27594 44.504 4.25456 44.4508 4.25424H34.2088C34.1555 4.25432 34.1043 4.27558 34.0666 4.31336C34.0289 4.35113 34.0077 4.40233 34.0077 4.45572V10.0769C34.0078 10.1302 34.029 10.1813 34.0667 10.219C34.1044 10.2567 34.1555 10.278 34.2088 10.278H40.6998C40.7531 10.2781 40.8043 10.2993 40.842 10.3371C40.8797 10.3748 40.9009 10.4259 40.901 10.4792V14.2926C40.901 14.346 40.8798 14.3972 40.8421 14.4349C40.8044 14.4727 40.7532 14.494 40.6998 14.4941H35.245V14.4999H34.2101C34.1567 14.5 34.1056 14.5212 34.0679 14.5589C34.0302 14.5966 34.009 14.6477 34.0089 14.701V21.6032C34.009 21.6565 34.0302 21.7077 34.0679 21.7454C34.1056 21.7831 34.1567 21.8043 34.2101 21.8044H44.6012C44.6543 21.8041 44.7052 21.7827 44.7426 21.745C44.78 21.7073 44.801 21.6563 44.8009 21.6032V17.4327C44.8009 17.3794 44.8221 17.3282 44.8598 17.2905C44.8975 17.2528 44.9487 17.2316 45.002 17.2316H48.7986C48.825 17.2315 48.8512 17.2367 48.8756 17.2468C48.9001 17.2569 48.9223 17.2717 48.9409 17.2904C48.9596 17.3091 48.9744 17.3313 48.9845 17.3557C48.9946 17.3801 48.9998 17.4063 48.9998 17.4327Z" fill="#1A9CD8"/>
<path d="M23.8635 46.4099V54.7991C23.8634 54.8525 23.8422 54.9036 23.8045 54.9413C23.7668 54.979 23.7156 55.0002 23.6623 55.0003H0.205451C0.152338 55 0.101514 54.9786 0.0641002 54.9409C0.0266862 54.9032 0.00572736 54.8522 0.00580918 54.7991V50.983C0.00572689 50.9299 0.0266758 50.8788 0.0640813 50.8411C0.101487 50.8033 0.15231 50.7819 0.205451 50.7815H4.63457V33.4328C4.63457 33.4064 4.62935 33.3802 4.61923 33.3558C4.6091 33.3314 4.59425 33.3092 4.57554 33.2905C4.55682 33.2718 4.53461 33.257 4.51017 33.2469C4.48573 33.2368 4.45953 33.2316 4.43309 33.2317H0.201171C0.174727 33.2317 0.148543 33.2265 0.124116 33.2163C0.0996884 33.2062 0.077498 33.1914 0.0588135 33.1726C0.0401291 33.1539 0.0253174 33.1317 0.0152256 33.1073C0.00513386 33.0828 -3.99559e-05 33.0566 2.32337e-07 33.0302V29.2021C0.000323545 29.149 0.0216707 29.0982 0.0593713 29.0608C0.0970718 29.0234 0.148056 29.0024 0.201171 29.0025H23.5122C23.5653 29.0024 23.6163 29.0234 23.654 29.0608C23.6917 29.0982 23.713 29.149 23.7134 29.2021V37.4816C23.7134 37.535 23.6922 37.5862 23.6544 37.6239C23.6167 37.6616 23.5655 37.6828 23.5122 37.6828H19.7156C19.6892 37.6828 19.663 37.6777 19.6386 37.6676C19.6141 37.6575 19.5919 37.6427 19.5732 37.624C19.5545 37.6053 19.5396 37.5831 19.5295 37.5587C19.5194 37.5343 19.5142 37.5081 19.5142 37.4816V33.4328C19.5143 33.3797 19.4934 33.3287 19.456 33.291C19.4185 33.2532 19.3677 33.2319 19.3145 33.2317H9.07255C9.04612 33.2316 9.01994 33.2368 8.99552 33.2469C8.97109 33.257 8.9489 33.2718 8.93021 33.2905C8.91152 33.3092 8.89671 33.3314 8.88661 33.3558C8.87652 33.3802 8.87134 33.4064 8.87138 33.4328V39.054C8.87134 39.0804 8.87652 39.1066 8.88661 39.131C8.89671 39.1555 8.91152 39.1777 8.93021 39.1963C8.9489 39.215 8.97109 39.2298 8.99552 39.2399C9.01994 39.25 9.04612 39.2552 9.07255 39.2552H15.5632C15.6166 39.2552 15.6679 39.2764 15.7057 39.3142C15.7435 39.352 15.7647 39.4032 15.7647 39.4566V43.2712C15.7646 43.3246 15.7433 43.3758 15.7056 43.4135C15.6678 43.4512 15.6166 43.4724 15.5632 43.4724H10.1084V43.4785H9.07377C9.04734 43.4785 9.02117 43.4837 8.99674 43.4938C8.97232 43.5039 8.95012 43.5187 8.93143 43.5374C8.91275 43.5561 8.89793 43.5782 8.88783 43.6027C8.87774 43.6271 8.87256 43.6533 8.8726 43.6797V50.5804C8.87256 50.6068 8.87774 50.633 8.88783 50.6574C8.89793 50.6818 8.91275 50.704 8.93143 50.7227C8.95012 50.7414 8.97232 50.7562 8.99674 50.7663C9.02117 50.7764 9.04734 50.7816 9.07377 50.7815H19.4646C19.5178 50.7813 19.5687 50.76 19.6062 50.7223C19.6437 50.6845 19.6647 50.6335 19.6646 50.5804V46.4099C19.6646 46.3565 19.6858 46.3054 19.7235 46.2676C19.7612 46.2299 19.8124 46.2087 19.8658 46.2087H23.6623C23.7156 46.2088 23.7668 46.23 23.8045 46.2677C23.8422 46.3054 23.8634 46.3566 23.8635 46.4099Z" fill="#1A9CD8"/>
<path d="M49 46.4172V54.8019C48.9998 54.8547 48.9787 54.9053 48.9414 54.9427C48.9041 54.98 48.8535 55.0012 48.8007 55.0015H26.2087C26.1559 55.0013 26.1052 54.9802 26.0678 54.9428C26.0304 54.9054 26.0093 54.8547 26.0091 54.8019V50.9741C26.0092 50.9557 26.0122 50.9375 26.018 50.92V32.2763C26.0172 32.2718 26.0172 32.2673 26.018 32.2628V29.2021C26.0182 29.1493 26.0393 29.0986 26.0767 29.0612C26.1141 29.0239 26.1647 29.0027 26.2176 29.0025H48.251C48.3039 29.0027 48.3546 29.0238 48.392 29.0612C48.4294 29.0986 48.4506 29.1492 48.4509 29.2021V37.4939C48.4506 37.5468 48.4294 37.5974 48.392 37.6348C48.3546 37.6722 48.3039 37.6933 48.251 37.6935H44.455C44.4022 37.6933 44.3515 37.6721 44.3141 37.6348C44.2768 37.5974 44.2556 37.5467 44.2554 37.4939V33.4276C44.2552 33.3748 44.234 33.3242 44.1966 33.2869C44.1592 33.2495 44.1086 33.2285 44.0558 33.2283H30.4507C30.3979 33.2285 30.3473 33.2496 30.31 33.2869C30.2726 33.3243 30.2514 33.3748 30.2511 33.4276V50.5736C30.2513 50.6265 30.2725 50.6771 30.3098 50.7145C30.3472 50.7519 30.3979 50.773 30.4507 50.7733H44.6024C44.6553 50.7731 44.706 50.752 44.7434 50.7146C44.7808 50.6772 44.8019 50.6265 44.8021 50.5736V46.4157C44.8021 46.3895 44.8072 46.3635 44.8173 46.3393C44.8273 46.3151 44.842 46.2931 44.8605 46.2746C44.8791 46.2561 44.9011 46.2414 44.9253 46.2314C44.9495 46.2214 44.9755 46.2163 45.0017 46.2163H48.7995C48.8259 46.2161 48.8521 46.2212 48.8765 46.2312C48.901 46.2413 48.9232 46.256 48.9419 46.2747C48.9605 46.2934 48.9753 46.3157 48.9853 46.3401C48.9953 46.3646 49.0003 46.3908 49 46.4172Z" fill="white"/>
</svg>